<?xml version="1.0" standalone="no"?>
<!DOCTYPE svg PUBLIC "-//W3C//DTD SVG 20010904//EN"
 "http://www.w3.org/TR/2001/REC-SVG-20010904/DTD/svg10.dtd">
<svg version="1.0" xmlns="http://www.w3.org/2000/svg"
 width="450.000000pt" height="436.000000pt" viewBox="0 0 450.000000 436.000000"
 preserveAspectRatio="xMidYMid meet">

<g transform="translate(0.000000,436.000000) scale(0.100000,-0.100000)"
fill="#000000" stroke="none">
<path d="M2178 3521 c-26 -10 -62 -28 -80 -39 -71 -45 -128 -151 -128 -238 0
-145 114 -369 214 -421 l31 -16 -84 -18 c-96 -21 -183 -59 -270 -118 -58 -40
-111 -96 -111 -119 0 -29 26 -18 83 35 180 167 439 215 692 127 78 -27 145
-69 220 -136 48 -43 75 -51 75 -23 0 25 -126 130 -200 168 -41 20 -116 48
-167 60 l-92 22 52 41 c108 85 200 309 180 439 -14 93 -87 186 -178 226 -70
31 -175 35 -237 10z m231 -62 c120 -60 164 -166 127 -304 -37 -137 -113 -258
-187 -296 -83 -42 -157 -8 -236 110 -50 73 -93 201 -93 274 0 189 210 305 389
216z"/>
<path d="M1540 2077 c0 -349 1 -376 18 -381 9 -3 61 -10 114 -16 170 -20 374
-85 536 -171 l73 -39 77 39 c186 93 374 152 545 172 56 6 108 16 115 21 9 8
12 91 10 377 l-3 366 -75 -1 c-149 -2 -359 -60 -551 -151 l-116 -55 -89 45
c-169 85 -397 151 -566 163 l-88 7 0 -376z m221 303 c138 -28 295 -81 418
-141 l104 -51 106 51 c176 83 444 161 555 161 l36 0 0 -330 0 -330 -22 -4
c-13 -2 -70 -11 -128 -20 -145 -23 -380 -100 -478 -157 -18 -10 -35 -19 -38
-19 -2 0 -4 105 -4 233 0 127 -4 238 -9 246 -5 8 -16 11 -25 8 -14 -6 -16 -36
-16 -247 0 -132 -3 -240 -6 -240 -4 0 -21 9 -38 20 -87 53 -360 141 -497 160
-46 7 -94 14 -106 16 l-23 4 0 330 0 330 36 0 c20 0 80 -9 135 -20z"/>
<path d="M1181 1219 c-101 -52 -120 -184 -36 -258 65 -57 155 -54 216 8 124
123 -24 329 -180 250z m108 -64 c56 -29 63 -106 14 -145 -75 -59 -172 25 -128
109 24 48 66 61 114 36z"/>
<path d="M2000 1227 c-41 -14 -63 -50 -55 -91 8 -43 32 -65 92 -82 57 -17 73
-35 53 -59 -16 -19 -51 -19 -76 0 -25 19 -74 20 -74 1 0 -48 44 -76 120 -76
44 0 56 5 81 29 58 58 27 128 -71 159 -43 13 -55 22 -55 37 0 15 8 21 34 23
18 2 38 -1 44 -7 10 -10 67 -16 67 -7 0 26 -26 60 -55 71 -41 18 -58 18 -105
2z"/>
<path d="M2472 1229 c-56 -17 -75 -94 -34 -142 9 -9 40 -25 69 -33 57 -17 73
-35 53 -59 -16 -19 -54 -19 -74 0 -16 16 -76 21 -76 5 0 -23 24 -59 47 -69 31
-14 105 -14 136 0 28 12 47 47 47 84 0 37 -39 73 -100 93 -43 13 -55 22 -55
37 0 15 8 21 34 23 18 2 38 -1 44 -7 6 -6 24 -11 39 -11 34 0 36 19 6 54 -27
30 -85 40 -136 25z"/>
<path d="M2813 1229 c-76 -22 -124 -112 -102 -191 28 -105 156 -153 239 -88
l25 19 -21 22 c-18 17 -25 19 -42 10 -63 -34 -132 7 -132 79 0 69 60 107 122
75 32 -15 34 -15 51 6 25 31 22 38 -25 59 -47 21 -67 23 -115 9z"/>
<path d="M3490 1229 c-41 -16 -90 -70 -101 -111 -14 -52 4 -113 45 -154 103
-103 289 -5 262 138 -18 98 -120 161 -206 127z m113 -87 c10 -10 20 -34 23
-53 5 -28 1 -41 -21 -67 -64 -76 -176 -6 -143 90 19 55 98 72 141 30z"/>
<path d="M3860 1218 c-59 -31 -82 -66 -88 -130 -3 -44 0 -59 20 -87 53 -78
129 -100 208 -59 54 28 82 72 82 132 0 73 -46 137 -113 156 -48 14 -59 13
-109 -12z m103 -60 c34 -18 46 -39 47 -81 0 -88 -116 -123 -155 -46 -19 36
-19 69 1 97 27 38 70 50 107 30z"/>
<path d="M190 1080 l0 -150 89 0 c110 0 136 15 136 80 0 32 -6 47 -24 61 -22
18 -23 21 -7 37 22 25 20 64 -5 96 -19 24 -26 26 -105 26 l-84 0 0 -150z m143
77 c8 -22 -7 -38 -39 -40 -25 -2 -29 2 -32 26 -3 25 -1 27 31 27 20 0 37 -6
40 -13z m3 -111 c28 -22 7 -50 -40 -54 -35 -3 -36 -2 -36 32 0 33 3 36 28 36
16 0 37 -6 48 -14z"/>
<path d="M480 1125 c0 -129 14 -169 64 -190 45 -19 87 -19 132 0 50 21 64 61
64 190 l0 105 -35 0 -35 0 0 -103 c0 -114 -10 -137 -62 -137 -47 0 -58 26 -58
138 l0 102 -35 0 -35 0 0 -105z"/>
<path d="M820 1080 l0 -150 35 0 35 0 0 60 0 60 60 0 60 0 0 30 0 30 -60 0
-60 0 0 30 0 30 65 0 65 0 0 30 0 30 -100 0 -100 0 0 -150z"/>
<path d="M1490 1080 l0 -150 35 0 34 0 3 86 3 87 48 -87 c48 -85 49 -86 88
-86 l39 0 0 150 0 150 -35 0 -34 0 -3 -92 -3 -91 -50 91 c-49 90 -51 92 -87
92 l-38 0 0 -150z"/>
<path d="M1822 1183 c3 -41 6 -48 26 -51 19 -3 22 1 22 31 0 20 3 42 6 51 5
13 -1 16 -25 16 -32 0 -32 0 -29 -47z"/>
<path d="M3050 1080 l0 -150 35 0 35 0 0 60 0 60 60 0 60 0 0 -60 0 -60 35 0
35 0 0 150 0 150 -35 0 -34 0 -3 -57 -3 -58 -57 -3 -58 -3 0 61 0 60 -35 0
-35 0 0 -150z"/>
<path d="M4160 1080 l0 -150 106 0 105 0 -3 28 c-3 26 -5 27 -70 30 l-68 3 0
119 0 120 -35 0 -35 0 0 -150z"/>
<path d="M3211 648 c0 -28 2 -30 9 -13 12 28 12 45 0 45 -5 0 -10 -15 -9 -32z"/>
<path d="M630 650 c-24 -24 -26 -72 -4 -94 21 -22 59 -30 81 -17 15 9 14 10
-13 11 -37 0 -64 27 -64 62 0 35 22 51 60 43 19 -4 30 -3 30 4 0 19 -69 12
-90 -9z"/>
<path d="M775 600 c0 -66 1 -70 23 -70 19 0 21 3 11 19 -18 28 -4 51 32 51 30
0 31 -2 27 -35 -4 -32 -2 -35 21 -35 19 0 22 3 13 12 -7 7 -12 33 -12 58 0 25
5 51 12 58 9 9 6 12 -13 12 -23 0 -25 -3 -21 -30 4 -29 3 -30 -32 -30 -31 0
-36 3 -36 24 0 13 6 27 13 29 6 3 1 6 -13 6 -24 1 -25 -1 -25 -69z"/>
<path d="M1001 648 c-8 -21 -40 -93 -49 -110 -2 -5 5 -8 16 -8 15 0 19 5 15
21 -5 18 -2 20 28 17 25 -2 34 -8 33 -20 -1 -12 5 -18 20 -18 22 0 22 1 -11
70 -18 39 -36 70 -38 70 -3 0 -9 -10 -14 -22z m23 -34 c10 -26 7 -34 -15 -34
-15 0 -19 4 -15 16 3 9 6 20 6 25 0 15 17 10 24 -7z"/>
<path d="M1138 615 c3 -34 -1 -61 -8 -70 -10 -13 -8 -15 16 -15 22 0 25 3 16
12 -7 7 -12 30 -12 52 l0 40 48 -47 c26 -26 50 -47 53 -47 4 0 4 22 1 50 -3
32 0 55 8 65 10 12 9 15 -6 15 -17 0 -19 -6 -16 -47 l4 -48 -49 48 c-27 26
-51 47 -53 47 -3 0 -3 -25 -2 -55z"/>
<path d="M1349 663 c-22 -5 -42 -45 -37 -73 8 -59 110 -80 121 -24 4 20 0 24
-22 24 -19 0 -22 -3 -12 -9 17 -11 7 -41 -13 -41 -22 0 -56 40 -56 66 0 37 27
56 67 48 26 -5 34 -4 29 5 -7 11 -45 13 -77 4z"/>
<path d="M1488 663 c15 -6 17 -104 1 -120 -7 -7 -4 -9 13 -6 21 4 24 9 20 35
-4 28 -2 30 17 25 11 -3 24 -1 27 4 3 5 -6 9 -20 9 -21 0 -26 5 -26 26 0 24 3
26 30 21 17 -4 30 -2 30 3 0 6 -24 10 -52 9 -29 0 -47 -3 -40 -6z"/>
<path d="M1715 633 c27 -40 33 -88 13 -96 -7 -3 1 -6 18 -6 28 -1 31 2 26 24
-6 34 3 66 28 93 21 22 21 22 1 22 -12 0 -19 -5 -16 -12 2 -7 -2 -22 -10 -32
-15 -20 -15 -20 -30 0 -8 10 -12 25 -10 32 3 7 -5 12 -21 12 l-25 0 26 -37z"/>
<path d="M1880 650 c-41 -41 -7 -120 52 -120 24 0 68 44 68 68 0 59 -79 93
-120 52z m72 -7 c28 -32 31 -60 8 -83 -23 -23 -51 -15 -70 20 -30 57 21 109
62 63z"/>
<path d="M2050 618 c7 -64 12 -74 45 -82 45 -11 65 8 65 62 0 27 5 53 12 60 9
9 8 12 -7 12 -18 0 -20 -7 -20 -57 0 -58 0 -58 -30 -58 -30 0 -30 0 -30 58 0
51 -2 57 -21 57 -18 0 -20 -4 -14 -52z"/>
<path d="M2225 600 l0 -70 30 0 c20 0 26 3 17 9 -8 5 -12 21 -10 37 l3 29 34
-37 c19 -21 40 -38 48 -38 9 0 3 12 -16 32 -27 29 -28 33 -15 54 13 19 13 24
-1 38 -9 9 -33 16 -53 16 l-37 0 0 -70z m73 32 c3 -17 -2 -22 -17 -22 -16 0
-21 6 -21 26 0 33 33 30 38 -4z"/>
<path d="M2471 646 c-46 -49 2 -129 66 -110 l28 8 -32 4 c-34 3 -63 33 -63 64
0 29 29 50 61 43 18 -4 29 -2 29 4 0 22 -66 12 -89 -13z"/>
<path d="M2615 600 c0 -66 1 -70 23 -70 20 0 21 3 12 21 -17 30 -5 49 31 49
30 0 31 -2 27 -35 -3 -30 -1 -35 17 -35 18 0 20 6 20 70 0 64 -2 70 -21 70
-17 0 -20 -5 -16 -30 4 -29 3 -30 -32 -30 -28 0 -36 4 -36 18 0 10 5 23 12 30
9 9 7 12 -12 12 -24 0 -25 -2 -25 -70z"/>
<path d="M2798 658 c15 -15 16 -82 2 -109 -9 -16 -7 -19 12 -19 22 0 23 4 23
70 0 68 -1 70 -24 70 -20 0 -22 -3 -13 -12z"/>
<path d="M2888 663 c15 -6 17 -104 1 -120 -7 -7 -4 -9 13 -6 21 4 23 9 23 69
0 62 -1 64 -25 63 -14 0 -19 -3 -12 -6z"/>
<path d="M3038 658 c14 -14 16 -100 2 -114 -6 -6 9 -9 41 -8 59 1 82 19 82 65
0 44 -32 69 -91 69 -36 0 -43 -3 -34 -12z m84 -15 c26 -23 24 -79 -3 -93 -36
-20 -49 -6 -49 55 0 60 15 72 52 38z"/>
<path d="M3286 654 c-23 -22 -20 -31 19 -56 19 -13 35 -29 35 -36 0 -19 -28
-26 -45 -12 -17 14 -31 8 -20 -9 9 -16 51 -13 69 5 24 24 19 40 -19 64 -41 25
-41 46 -1 43 14 -1 26 2 26 8 0 15 -47 10 -64 -7z"/>
<path d="M3468 615 c3 -36 -1 -61 -10 -72 -11 -15 -11 -16 5 -10 10 4 26 7 35
7 12 0 13 3 4 12 -16 16 -16 90 0 106 9 9 7 12 -12 12 -24 0 -25 -2 -22 -55z"/>
<path d="M3608 663 c16 -6 16 -105 0 -121 -9 -9 -5 -12 21 -12 28 0 32 2 21
15 -7 9 -11 36 -8 70 3 53 2 55 -22 54 -14 0 -19 -3 -12 -6z"/>
<path d="M3708 615 c2 -31 -1 -61 -7 -68 -8 -10 -3 -13 23 -13 27 0 31 2 21
13 -7 7 -12 33 -11 60 1 45 3 48 28 48 15 1 30 4 34 8 4 4 -15 7 -42 7 l-49 0
3 -55z"/>
<path d="M3848 615 c3 -36 -1 -61 -10 -72 -11 -15 -11 -16 5 -10 10 4 26 7 34
7 13 0 13 3 3 15 -18 21 -5 48 20 40 11 -4 20 -2 20 4 0 6 -12 11 -26 11 -21
0 -25 4 -22 23 2 16 10 22 30 22 15 1 30 4 34 8 4 4 -15 7 -42 7 l-49 0 3 -55z"/>
<path d="M3755 600 c3 -5 10 -10 16 -10 5 0 9 5 9 10 0 6 -7 10 -16 10 -8 0
-12 -4 -9 -10z"/>
<path d="M1560 550 c-23 -5 -23 -7 -6 -13 11 -4 24 -3 30 3 14 14 5 18 -24 10z"/>
<path d="M2960 550 c-23 -5 -23 -7 -6 -13 11 -4 24 -3 30 3 14 14 5 18 -24 10z"/>
<path d="M3536 551 c-15 -6 -16 -10 -7 -15 8 -5 20 -2 29 8 17 17 9 19 -22 7z"/>
<path d="M3916 551 c-15 -6 -16 -10 -7 -15 8 -5 20 -2 29 8 17 17 9 19 -22 7z"/>
</g>
</svg>
